<?xml version="1.0" encoding="UTF-8" standalone="no"?>
<!DOCTYPE svg PUBLIC "-//W3C//DTD SVG 1.1//EN" "http://www.w3.org/Graphics/SVG/1.1/DTD/svg11.dtd">
<svg version="1.1" xmlns="http://www.w3.org/2000/svg" xmlns:xlink="http://www.w3.org/1999/xlink" preserveAspectRatio="xMidYMid meet" viewBox="0 0 60 60" width="60" height="60"><defs><path d="M847.25 -449.72L848.39 -449.04L849.33 -448.14L850.06 -447.07L850.52 -445.85L850.68 -444.53L850.52 -443.2L850.06 -441.99L849.33 -440.91L848.39 -440.02L847.25 -439.33L845.96 -438.9L844.56 -438.74L843.15 -438.9L841.87 -439.33L840.73 -440.02L839.78 -440.91L839.06 -441.99L838.6 -443.2L838.44 -444.53L838.6 -445.85L839.06 -447.07L839.78 -448.14L840.73 -449.04L841.87 -449.72L843.15 -450.16L844.56 -450.31L845.96 -450.16L847.25 -449.72ZM807.14 -438.74L844.56 -531.94L844.56 -459.83L807.14 -438.74ZM844.56 -459.83L844.56 -531.94L881.97 -438.74L844.56 -459.83Z" id="j17ziSkr2w"></path><path d="M410.14 136.25L397.11 120.33L376.9 124.15L409.24 87.02L410.14 136.25ZM397.12 124.39L398.07 125.33L398.68 126.46L398.9 127.69L398.69 128.94L398.05 130.03L397.09 130.83L395.9 131.3L394.57 131.41L393.18 131.12L391.94 130.46L390.99 129.52L390.38 128.39L390.16 127.16L390.38 125.91L391.01 124.82L391.97 124.02L393.17 123.54L394.5 123.43L395.88 123.72L397.12 124.39Z" id="dIiDO6YY6"></path><path d="M254.52 76.33L228.33 74.87L271.51 43L271.1 96.66L254.52 76.33ZM254.45 79.3L255.18 80.32L255.57 81.5L255.57 82.76L255.18 83.99L254.41 85.04L253.39 85.77L252.21 86.16L250.95 86.17L249.72 85.77L248.67 85L247.94 83.98L247.55 82.8L247.55 81.55L247.94 80.31L248.71 79.26L249.73 78.53L250.91 78.15L252.17 78.14L253.4 78.54L254.45 79.3Z" id="acIxg59Gn"></path><path d="M32.37 48.63L33.24 49.5L33.81 50.6L34.02 51.87L33.81 53.14L33.24 54.24L32.37 55.11L31.27 55.69L30 55.89L28.73 55.69L27.63 55.11L26.76 54.24L26.19 53.14L25.98 51.87L26.19 50.6L26.76 49.5L27.63 48.63L28.73 48.06L30 47.86L31.27 48.06L32.37 48.63ZM30 43.23L30 4.11L55 51.87L30 43.23ZM5 51.87L30 4.11L30 43.23L5 51.87Z" id="d5xWVUeIAS"></path></defs><g><g><g><use xlink:href="#j17ziSkr2w" opacity="1" fill="#ff5252" fill-opacity="1"></use><g><use xlink:href="#j17ziSkr2w" opacity="1" fill-opacity="0" stroke="#ff5252" stroke-width="1" stroke-opacity="1"></use></g></g><g><use xlink:href="#dIiDO6YY6" opacity="1" fill="#ff5252" fill-opacity="1"></use><g><use xlink:href="#dIiDO6YY6" opacity="1" fill-opacity="0" stroke="#ff5252" stroke-width="1" stroke-opacity="1"></use></g></g><g><use xlink:href="#acIxg59Gn" opacity="1" fill="#ff5252" fill-opacity="1"></use><g><use xlink:href="#acIxg59Gn" opacity="1" fill-opacity="0" stroke="#ff5252" stroke-width="1" stroke-opacity="1"></use></g></g><g><use xlink:href="#d5xWVUeIAS" opacity="1" fill="#ff5252" fill-opacity="1"></use><g><use xlink:href="#d5xWVUeIAS" opacity="1" fill-opacity="0" stroke="#ff5252" stroke-width="1" stroke-opacity="1"></use></g></g></g></g></svg>